<svg xmlns="http://www.w3.org/2000/svg" xmlns:xlink="http://www.w3.org/1999/xlink" x="0" y="0" width="661.6000366210938" height="618.9249877929688" style="
        width:661.6000366210938px;
        height:618.9249877929688px;
        background: #FFF;
        fill: none;
">
        <svg xmlns="http://www.w3.org/2000/svg"><g><defs><pattern id=".8819966051836556" width="10" height="10" patternUnits="userSpaceOnUse"><path d="M 10 0 L 0 0 0 10" fill="none" stroke="lightgray" stroke-width="0.5"/></pattern></defs><rect width="100%" height="100%" fill="url(#.8819966051836556)" stroke="lightgray" stroke-width="0.5"/></g><g><defs><pattern id="0.24262222499685127" width="50" height="50" patternUnits="userSpaceOnUse"><path d="M 50 0 L 0 0 0 50" fill="none" stroke="gray" stroke-width="1"/></pattern></defs><rect width="100%" height="100%" fill="url(#0.24262222499685127)" stroke="gray" stroke-width="0"/></g></svg>
        
        <svg xmlns="http://www.w3.org/2000/svg" class="role-diagram-draw-area"><g class="shapes-region" style="stroke: black; fill: none;"><g class="arrow-line"><path class="connection real" stroke-dasharray="" d="  M-114.6,212.17 Q-112.09,209.68 -109.6,212.19 Q-107.1,214.69 -104.6,212.2 Q-102.1,209.71 -99.6,212.21 Q-97.11,214.72 -94.6,212.23 Q-92.1,209.74 -89.6,212.24 Q-87.1,214.74 -84.6,212.25 Q-82.09,209.76 -79.6,212.27 Q-77.1,214.77 -74.6,212.28 Q-72.1,209.79 -69.6,212.29 Q-67.1,214.79 -64.6,212.3 Q-62.09,209.81 -59.6,212.32 Q-57.1,214.82 -54.6,212.33 Q-52.1,209.84 -49.6,212.34 Q-47.11,214.85 -44.6,212.36 Q-42.1,209.87 -39.6,212.37 Q-37.1,214.87 -34.6,212.38 Q-32.1,209.89 -29.6,212.39 Q-27.11,214.9 -24.6,212.41 Q-22.1,209.92 -19.6,212.42 Q-17.1,214.92 -14.6,212.43 Q-12.09,209.94 -9.6,212.45 Q-7.1,214.95 -4.6,212.46 Q-2.1,209.97 0.4,212.47 Q2.9,214.97 5.4,212.48 Q7.91,209.99 10.4,212.5 Q12.9,215 15.4,212.51 Q17.9,210.02 20.4,212.52 Q22.89,215.03 25.4,212.54 Q27.9,210.05 30.4,212.55 Q32.9,215.05 35.4,212.56 Q37.9,210.07 40.4,212.57 Q42.89,215.08 45.4,212.59 Q47.9,210.1 50.4,212.6 Q52.9,215.1 55.4,212.61 Q57.91,210.12 60.4,212.63 Q62.9,215.13 65.4,212.64 Q67.9,210.15 70.4,212.65 Q72.9,215.15 75.4,212.66 Q77.91,210.17 80.4,212.68 Q82.9,215.18 85.4,212.69 Q87.9,210.2 90.4,212.7 Q92.89,215.21 95.4,212.72 Q97.9,210.23 100.4,212.73 Q102.9,215.23 105.4,212.74 Q107.9,210.25 110.4,212.75 Q112.89,215.26 115.4,212.77 Q117.9,210.28 120.4,212.78 Q122.9,215.28 125.4,212.79 Q127.91,210.3 130.4,212.81 Q132.9,215.31 135.4,212.82 Q137.9,210.33 140.4,212.83 Q142.89,215.34 145.4,212.85 Q147.9,210.36 150.4,212.86 Q152.9,215.36 155.4,212.87 Q157.9,210.38 160.4,212.88 Q162.89,215.39 165.4,212.9 Q167.9,210.41 170.4,212.91 Q172.9,215.41 175.4,212.92 Q177.91,210.43 180.4,212.94 Q182.9,215.44 185.4,212.95 Q187.9,210.46 190.4,212.96 Q192.9,215.46 195.4,212.97 Q197.91,210.48 200.4,212.99 Q202.9,215.49 205.4,213 Q207.9,210.51 210.4,213.01 Q212.89,215.52 215.4,213.03 Q217.9,210.54 220.4,213.04 Q222.9,215.54 225.4,213.05 Q227.9,210.56 230.4,213.06 Q232.89,215.57 235.4,213.08 Q237.9,210.59 240.4,213.09 Q242.9,215.59 245.4,213.1 Q247.91,210.61 250.4,213.12 Q252.9,215.62 255.4,213.13 Q257.9,210.64 260.4,213.14 Q262.9,215.64 265.4,213.15 Q267.91,210.66 270.4,213.17 Q272.9,215.67 275.4,213.18 Q277.9,210.69 280.4,213.19 Q282.89,215.7 285.4,213.21 Q287.9,210.72 290.4,213.22 Q292.9,215.72 295.4,213.23 Q297.9,210.74 300.4,213.24 Q302.89,215.75 305.4,213.26 Q307.9,210.77 310.4,213.27 Q312.9,215.77 315.4,213.28 Q317.91,210.79 320.4,213.3 Q322.9,215.8 325.4,213.31 Q327.9,210.82 330.4,213.32 Q332.9,215.82 335.4,213.33 Q337.91,210.84 340.4,213.35 Q342.9,215.85 345.4,213.36 Q347.9,210.87 350.4,213.37 Q352.89,215.88 355.4,213.39 Q357.9,210.9 360.4,213.4 Q362.9,215.9 365.4,213.41 Q367.9,210.92 370.4,213.42 Q372.89,215.93 375.4,213.44 Q377.9,210.95 380.4,213.45 Q382.9,215.95 385.4,213.46 Q387.91,210.97 390.4,213.48 Q392.9,215.98 395.4,213.49 Q397.9,211 400.4,213.5 Q402.89,216.01 405.4,213.52 Q407.9,211.03 410.4,213.53 Q412.9,216.03 415.4,213.54 Q417.9,211.05 420.4,213.55 Q422.89,216.06 425.4,213.57 Q427.9,211.08 430.4,213.58 Q432.9,216.08 435.4,213.59 Q437.91,211.1 440.4,213.61 Q442.9,216.11 445.4,213.62 Q447.9,211.13 450.4,213.63 Q452.9,216.13 455.4,213.64 Q457.91,211.15 460.4,213.66 Q462.9,216.16 465.4,213.67 Q467.9,211.18 470.4,213.68 Q472.89,216.19 475.4,213.7 Q477.9,211.21 480.4,213.71 Q482.9,216.21 485.4,213.72 Q487.9,211.23 490.4,213.73 Q492.89,216.24 495.4,213.75 Q497.9,211.26 500.4,213.76 Q502.9,216.26 505.4,213.77 Q507.91,211.28 510.4,213.79 Q512.9,216.29 515.4,213.8 Q517.9,211.31 520.4,213.81 Q522.9,216.31 525.4,213.82 Q527.91,211.33 530.4,213.84 Q532.9,216.34 535.4,213.85 Q537.9,211.36 540.4,213.86 Q542.89,216.37 545.4,213.88 Q547.9,211.39 550.4,213.89 Q552.9,216.39 555.4,213.9 Q557.9,211.41 560.4,213.91 Q562.89,216.42 565.4,213.93 Q567.9,211.44 570.4,213.94 Q572.9,216.44 575.4,213.95 Q577.91,211.46 580.4,213.97 Q582.9,216.47 585.4,213.98 Q587.9,211.49 590.4,213.99 Q592.9,216.49 595.4,214 Q597.91,211.51 600.4,214.02 Q602.9,216.52 605.4,214.03 Q607.9,211.54 610.4,214.04 Q612.89,216.55 615.4,214.06 Q617.9,211.57 620.4,214.07 Q622.9,216.57 625.4,214.08 Q627.91,211.59 630.4,214.1 Q632.9,216.6 635.4,214.11 Q637.9,211.62 640.4,214.12 Q642.9,216.62 645.4,214.13 Q647.91,211.64 650.4,214.15 Q652.9,216.65 655.4,214.16 Q657.9,211.67 660.4,214.17 Q662.89,216.68 665.4,214.19 Q667.9,211.7 670.4,214.2 Q672.9,216.7 675.4,214.21 Q677.9,211.72 680.4,214.22 Q682.89,216.73 685.4,214.24 Q687.9,211.75 690.4,214.25 Q692.9,216.75 695.4,214.26 Q697.91,211.77 700.4,214.28 Q702.9,216.78 705.4,214.29 Q707.9,211.8 710.4,214.3 Q712.9,216.8 715.4,214.31 Q717.91,211.82 720.4,214.33 Q722.9,216.83 725.4,214.34 Q727.9,211.85 730.4,214.35 Q732.89,216.86 735.4,214.37 Q737.9,211.88 740.4,214.38 Q742.9,216.88 745.4,214.39 Q747.9,211.9 750.4,214.4 Q752.89,216.91 755.4,214.42 Q757.9,211.93 760.4,214.43 Q762.9,216.93 765.4,214.44 Q767.91,211.95 770.4,214.46 Q772.9,216.96 775.4,214.47 Q777.9,211.98 780.4,214.48 Q782.9,216.98 785.4,214.49 Q787.91,212 790.4,214.51 Q792.9,217.01 795.4,214.52 Q797.9,212.03 800.4,214.53 Q802.89,217.04 805.4,214.55 Q807.9,212.06 810.4,214.56 Q812.9,217.06 815.4,214.57 L816.6,214.57 L816.6,214.57" style="stroke: rgb(0, 0, 0); stroke-width: 1; fill: rgb(0, 101, 189); fill-opacity: 1;"/></g><g/></g><g><g class="connection-group"><g class="arrow-line"><path class="connection real" stroke-dasharray="" d="  M260.83,-4.4 L176.78,58.07" style="stroke: rgb(0, 0, 0); stroke-width: 1; fill: none; fill-opacity: 1;"/><g stroke="#000" transform="matrix(0.8026093045418948,-0.5965050748005216,0.5965050748005216,0.8026093045418948,175.173860911271,59.26666768391927)" style="stroke: rgb(0, 0, 0); stroke-width: 1;"><path d=" M10.93,-3.29 Q4.96,-0.45 0,0 Q4.96,0.45 10.93,3.29"/></g></g></g><g class="connection-group"><g class="arrow-line"><path class="connection real" stroke-dasharray="" d="  M276.97,-4.4 L239.51,157.32" style="stroke: rgb(0, 0, 0); stroke-width: 1; fill: none; fill-opacity: 1;"/><g stroke="#000" transform="matrix(0.2256312380999384,-0.9742127818877604,0.9742127818877604,0.2256312380999384,239.05906611247866,159.26666768391928)" style="stroke: rgb(0, 0, 0); stroke-width: 1;"><path d=" M10.93,-3.29 Q4.96,-0.45 0,0 Q4.96,0.45 10.93,3.29"/></g></g></g><g class="connection-group"><g class="arrow-line"><path class="connection real" stroke-dasharray="" d="  M288.59,-4.4 L316.28,44.2" style="stroke: rgb(0, 0, 0); stroke-width: 1; fill: none; fill-opacity: 1;"/><g stroke="#000" transform="matrix(-0.495003786139382,-0.8688908169083599,0.8688908169083599,-0.495003786139382,317.27197383164685,45.93333435058588)" style="stroke: rgb(0, 0, 0); stroke-width: 1;"><path d=" M10.93,-3.29 Q4.96,-0.45 0,0 Q4.96,0.45 10.93,3.29"/></g></g></g><g class="connection-group"><g class="arrow-line"><path class="connection real" stroke-dasharray="" d="  M328.92,74.93 L344.82,142.99" style="stroke: rgb(0, 0, 0); stroke-width: 1; fill: none; fill-opacity: 1;"/><g stroke="#000" transform="matrix(-0.22750117539977546,-0.973777805863186,0.973777805863186,-0.22750117539977546,345.27844849660335,144.93333435058594)" style="stroke: rgb(0, 0, 0); stroke-width: 1;"><path d=" M10.93,-3.29 Q4.96,-0.45 0,0 Q4.96,0.45 10.93,3.29"/></g></g></g><g class="connection-group"><g class="arrow-line"><path class="connection real" stroke-dasharray="" d="  M357.03,70.53 C735.34,188.16 840.44,347.96 672.32,549.93" style="stroke: rgb(0, 0, 0); stroke-width: 1; fill: none; fill-opacity: 1;"/><g stroke="#000" transform="matrix(0.6397073394462183,-0.7686185789184652,0.7686185789184652,0.6397073394462183,672.3203812966273,549.9333343505857)" style="stroke: rgb(0, 0, 0); stroke-width: 1;"><path d=" M10.93,-3.29 Q4.96,-0.45 0,0 Q4.96,0.45 10.93,3.29"/></g></g></g><g class="connection-group"><g class="arrow-line"><path class="connection real" stroke-dasharray="" d="  M382.2,239.86 L333.15,246.77" style="stroke: rgb(0, 0, 0); stroke-width: 1; fill: none; fill-opacity: 1;"/><g stroke="#000" transform="matrix(0.9902437633706288,-0.1393459332222299,0.1393459332222299,0.9902437633706288,331.1666666666667,247.0443418556635)" style="stroke: rgb(0, 0, 0); stroke-width: 1;"><path d=" M10.93,-3.29 Q4.96,-0.45 0,0 Q4.96,0.45 10.93,3.29"/></g></g></g><g class="connection-group"><g class="arrow-line"><path class="connection real" stroke-dasharray="" d="  M608.67,573.9 C556.14,588.12 470.09,588.26 350.47,574.31" style="stroke: rgb(0, 0, 0); stroke-width: 1; fill: none; fill-opacity: 1;"/><g stroke="#000" transform="matrix(0.9931706495384862,0.11667073709933187,-0.11667073709933187,0.9931706495384862,348.6666666433665,574.0993548227652)" style="stroke: rgb(0, 0, 0); stroke-width: 1;"><path d=" M10.93,-3.29 Q4.96,-0.45 0,0 Q4.96,0.45 10.93,3.29"/></g></g></g><g class="connection-group"><g class="arrow-line"><path class="connection real" stroke-dasharray="" d="  M129.91,88.27 L99.3,105.49" style="stroke: rgb(0, 0, 0); stroke-width: 1; fill: none; fill-opacity: 1;"/><g stroke="#000" transform="matrix(0.8713851157755489,-0.49059961272389235,0.49059961272389235,0.8713851157755489,97.55958337209708,106.4749984741211)" style="stroke: rgb(0, 0, 0); stroke-width: 1;"><path d=" M10.93,-3.29 Q4.96,-0.45 0,0 Q4.96,0.45 10.93,3.29"/></g></g></g><g class="connection-group"><g class="arrow-line"><path class="connection real" stroke-dasharray="" d="  M65.45,135.47 L59.71,148.59" style="stroke: rgb(0, 0, 0); stroke-width: 1; fill: none; fill-opacity: 1;"/><g stroke="#000" transform="matrix(0.40114855735246585,-0.9160130102427778,0.9160130102427778,0.40114855735246585,58.90498308278708,150.4208323160807)" style="stroke: rgb(0, 0, 0); stroke-width: 1;"><path d=" M10.93,-3.29 Q4.96,-0.45 0,0 Q4.96,0.45 10.93,3.29"/></g></g></g><g class="connection-group"><g class="arrow-line"><path class="connection real" stroke-dasharray="" d="  M228.33,-7.26 L196.62,-0.16" style="stroke: rgb(0, 0, 0); stroke-width: 1; fill: none; fill-opacity: 1;"/><g stroke="#000" transform="matrix(0.9758405561279782,-0.21848388731400376,0.21848388731400376,0.9758405561279782,194.66666666666666,0.27906553008267565)" style="stroke: rgb(0, 0, 0); stroke-width: 1;"><path d=" M10.93,-3.29 Q4.96,-0.45 0,0 Q4.96,0.45 10.93,3.29"/></g></g></g><g class="connection-group"><g class="arrow-line"><path class="connection real" stroke-dasharray="" d="  M366.87,289.57 L303.07,300.95" style="stroke: rgb(0, 0, 0); stroke-width: 1; fill: none; fill-opacity: 1;"/><g stroke="#000" transform="matrix(0.9844725577120637,-0.17553855163999577,0.17553855163999577,0.9844725577120637,301.0999755859375,301.30329468625183)" style="stroke: rgb(0, 0, 0); stroke-width: 1;"><path d=" M10.93,-3.29 Q4.96,-0.45 0,0 Q4.96,0.45 10.93,3.29"/></g></g></g><g class="connection-group"><g class="arrow-line"><path class="connection real" stroke-dasharray="" d="  M266.84,270.27 C266.74,274.5 265.01,281.87 261.65,292.38" style="stroke: rgb(0, 0, 0); stroke-width: 1; fill: none; fill-opacity: 1;"/><g stroke="#000" transform="matrix(0.31034461812780023,-0.9506241202489604,0.9506241202489604,0.31034461812780023,261.0443075510546,294.2416661580967)" style="stroke: rgb(0, 0, 0); stroke-width: 1;"><path d=" M10.93,-3.29 Q4.96,-0.45 0,0 Q4.96,0.45 10.93,3.29"/></g></g></g><g class="connection-group"><g class="arrow-line"><path class="connection real" stroke-dasharray="" d="  M301.1,313.49 L353.04,318.45" style="stroke: rgb(0, 0, 0); stroke-width: 1; fill: none; fill-opacity: 1;"/><g stroke="#000" transform="matrix(-0.9954794605355862,-0.09497706908395419,0.09497706908395419,-0.9954794605355862,355.0333150227864,318.63644709106075)" style="stroke: rgb(0, 0, 0); stroke-width: 1;"><path d=" M10.93,-3.29 Q4.96,-0.45 0,0 Q4.96,0.45 10.93,3.29"/></g></g></g><g class="connection-group"><g class="arrow-line"><path class="connection real" stroke-dasharray="" d="  M370.66,334.45 L328.57,355.17" style="stroke: rgb(0, 0, 0); stroke-width: 1; fill: none; fill-opacity: 1;"/><g stroke="#000" transform="matrix(0.8971812987007127,-0.4416624471943506,0.4416624471943506,0.8971812987007127,326.7799697904259,356.0541648864746)" style="stroke: rgb(0, 0, 0); stroke-width: 1;"><path d=" M10.93,-3.29 Q4.96,-0.45 0,0 Q4.96,0.45 10.93,3.29"/></g></g></g><g class="connection-group"><g class="arrow-line"><path class="connection real" stroke-dasharray="" d="  M45.62,203.42 L31.45,426.58" style="stroke: rgb(0, 0, 0); stroke-width: 1; fill: none; fill-opacity: 1;"/><g stroke="#000" transform="matrix(0.06331307647126631,-0.9979937145832851,0.9979937145832851,0.06331307647126631,31.323723375414886,428.57499949137366)" style="stroke: rgb(0, 0, 0); stroke-width: 1;"><path d=" M10.93,-3.29 Q4.96,-0.45 0,0 Q4.96,0.45 10.93,3.29"/></g></g></g><g class="connection-group"><g class="arrow-line"><path class="connection real" stroke-dasharray="" d="  M47.31,455.57 L84.96,485.74" style="stroke: rgb(0, 0, 0); stroke-opacity: 1; stroke-width: 1; fill: none; fill-opacity: 1;"/><g stroke="rgb(0,0,0)" stroke-opacity="1" transform="matrix(-0.78043040733833,-0.6252426563357049,0.6252426563357049,-0.78043040733833,86.51838915654741,486.9875005086262)" style="stroke: rgb(0, 0, 0); stroke-width: 1;"><path d=" M10.93,-3.29 Q4.96,-0.45 0,0 Q4.96,0.45 10.93,3.29"/></g></g></g><g class="connection-group"><g class="arrow-line"><path class="connection real" stroke-dasharray="" d="  M122,430.61 L107.48,485.06" style="stroke: rgb(0, 0, 0); stroke-width: 1; fill: none; fill-opacity: 1;"/><g stroke="#000" transform="matrix(0.25763875121626983,-0.9662413124430775,0.9662413124430775,0.25763875121626983,106.96648584184118,486.9875005086262)" style="stroke: rgb(0, 0, 0); stroke-width: 1;"><path d=" M10.93,-3.29 Q4.96,-0.45 0,0 Q4.96,0.45 10.93,3.29"/></g></g></g><g class="connection-group"><g class="arrow-line"><path class="connection real" stroke-dasharray="" d="  M228.2,390.07 L169.3,405.06" style="stroke: rgb(0, 0, 0); stroke-width: 1; fill: none; fill-opacity: 1;"/><g stroke="#000" transform="matrix(0.9691449269510165,-0.24649160343733584,0.24649160343733584,0.9691449269510165,167.36666361490887,405.5501826790726)" style="stroke: rgb(0, 0, 0); stroke-width: 1;"><path d=" M10.93,-3.29 Q4.96,-0.45 0,0 Q4.96,0.45 10.93,3.29"/></g></g></g><g class="connection-group"><g class="arrow-line"><path class="connection real" stroke-dasharray="" d="  M426.5,334.45 L514.33,367.95" style="stroke: rgb(0, 0, 0); stroke-width: 1; fill: none; fill-opacity: 1;"/><g stroke="#000" transform="matrix(-0.9343911338334204,-0.3562488021221897,0.3562488021221897,-0.9343911338334204,516.1999816894532,368.65875246607027)" style="stroke: rgb(0, 0, 0); stroke-width: 1;"><path d=" M10.93,-3.29 Q4.96,-0.45 0,0 Q4.96,0.45 10.93,3.29"/></g></g></g><g class="connection-group"><g class="arrow-line"><path class="connection real" stroke-dasharray="" d="  M563.94,395.93 C630.81,458.31 612.04,498.8 507.61,517.42" style="stroke: rgb(0, 0, 0); stroke-width: 1; fill: none; fill-opacity: 1;"/><g stroke="#000" transform="matrix(0.9850793038620547,-0.172101031672241,0.172101031672241,0.9850793038620547,506.0333295611044,517.6956062760015)" style="stroke: rgb(0, 0, 0); stroke-width: 1;"><path d=" M10.93,-3.29 Q4.96,-0.45 0,0 Q4.96,0.45 10.93,3.29"/></g></g></g><g class="connection-group"><g class="arrow-line"><path class="connection real" stroke-dasharray="" d="  M369.53,523.43 L416.04,525.61" style="stroke: rgb(0, 0, 0); stroke-width: 1; fill: none; fill-opacity: 1;"/><g stroke="#000" transform="matrix(-0.9988980813746036,-0.04693211082122591,0.04693211082122591,-0.9988980813746036,418.03333028157556,525.7024701530552)" style="stroke: rgb(0, 0, 0); stroke-width: 1;"><path d=" M10.93,-3.29 Q4.96,-0.45 0,0 Q4.96,0.45 10.93,3.29"/></g></g></g><g class="connection-group"><g class="arrow-line"><path class="connection real" stroke-dasharray="" d="  M511.33,445.6 L471.76,511.55" style="stroke: rgb(0, 0, 0); stroke-width: 1; fill: none; fill-opacity: 1;"/><g stroke="#000" transform="matrix(0.5144395337815056,-0.8575266561936528,0.8575266561936528,0.5144395337815056,470.7333279927572,513.2666676839192)" style="stroke: rgb(0, 0, 0); stroke-width: 1;"><path d=" M10.93,-3.29 Q4.96,-0.45 0,0 Q4.96,0.45 10.93,3.29"/></g></g></g><g class="connection-group"><g class="arrow-line"><path class="connection real" stroke-dasharray="" d="  M345.09,173.93 C318.03,270.62 353.43,383.73 451.29,513.27" style="stroke: rgb(0, 0, 0); stroke-width: 1; fill: none; fill-opacity: 1;"/><g stroke="#000" transform="matrix(-0.602790291109349,-0.7978996584435328,0.7978996584435328,-0.602790291109349,451.29389906247854,513.2666677540083)" style="stroke: rgb(0, 0, 0); stroke-width: 1;"><path d=" M10.93,-3.29 Q4.96,-0.45 0,0 Q4.96,0.45 10.93,3.29"/></g></g></g><g class="connection-group"><g class="arrow-line"><path class="connection real" stroke-dasharray="" d="  M529.64,338.27 L542.12,365.12" style="stroke: rgb(0, 0, 0); stroke-width: 1; fill: none; fill-opacity: 1;"/><g stroke="#000" transform="matrix(-0.42151068276640963,-0.9068234361295451,0.9068234361295451,-0.42151068276640963,542.9612525984043,366.93333435058594)" style="stroke: rgb(0, 0, 0); stroke-width: 1;"><path d=" M10.93,-3.29 Q4.96,-0.45 0,0 Q4.96,0.45 10.93,3.29"/></g></g></g><g class="connection-group"><g class="arrow-line"><path class="connection real" stroke-dasharray="" d="  M462.14,293.65 L491.85,308.38" style="stroke: rgb(0, 0, 0); stroke-width: 1; fill: none; fill-opacity: 1;"/><g stroke="#000" transform="matrix(-0.896021955848561,-0.4440097461062306,0.4440097461062306,-0.896021955848561,493.64301940613507,309.26666768391954)" style="stroke: rgb(0, 0, 0); stroke-width: 1;"><path d=" M10.93,-3.29 Q4.96,-0.45 0,0 Q4.96,0.45 10.93,3.29"/></g></g></g><g class="connection-group"><g class="arrow-line"><path class="connection real" stroke-dasharray="" d="  M572.29,58.22 L561.28,231.27" style="stroke: rgb(0, 0, 0); stroke-width: 1; fill: none; fill-opacity: 1;"/><g stroke="#000" transform="matrix(0.06348725826840555,-0.9979826491665879,0.9979826491665879,0.06348725826840555,561.1553028528164,233.26666768391942)" style="stroke: rgb(0, 0, 0); stroke-width: 1;"><path d=" M10.93,-3.29 Q4.96,-0.45 0,0 Q4.96,0.45 10.93,3.29"/></g></g></g><g class="connection-group"><g class="arrow-line"><path class="connection real" stroke-dasharray="" d="  M148.2,88.27 C113.41,153.53 91.96,223.51 83.83,298.17" style="stroke: rgb(0, 0, 0); stroke-width: 1; fill: none; fill-opacity: 1;"/><g stroke="#000" transform="matrix(0.10643761442688442,-0.994319382409452,0.994319382409452,0.10643761442688442,83.70877544533451,299.29583231527596)" style="stroke: rgb(0, 0, 0); stroke-width: 1;"><path d=" M10.93,-3.29 Q4.96,-0.45 0,0 Q4.96,0.45 10.93,3.29"/></g></g></g><g class="connection-group"><g class="arrow-line"><path class="connection real" stroke-dasharray="" d="  M91.63,344.3 L118.09,399.8" style="stroke: rgb(0, 0, 0); stroke-width: 1; fill: none; fill-opacity: 1;"/><g stroke="#000" transform="matrix(-0.43035355940211645,-0.9026604089633758,0.9026604089633758,-0.43035355940211645,118.95329899168814,401.6083337465923)" style="stroke: rgb(0, 0, 0); stroke-width: 1;"><path d=" M10.93,-3.29 Q4.96,-0.45 0,0 Q4.96,0.45 10.93,3.29"/></g></g></g><g class="connection-group"><g class="arrow-line"><path class="connection real" stroke-dasharray="" d="  M-40.72,265.27 C-42.54,333.81 -1.28,379.41 83.09,402.08" style="stroke: rgb(0, 0, 0); stroke-width: 1; fill: none; fill-opacity: 1;"/><g stroke="#000" transform="matrix(-0.966734162313297,-0.25578322739462006,0.25578322739462006,-0.966734162313297,84.36666344312843,402.4207896043613)" style="stroke: rgb(0, 0, 0); stroke-width: 1;"><path d=" M10.93,-3.29 Q4.96,-0.45 0,0 Q4.96,0.45 10.93,3.29"/></g></g></g><g class="connection-group"><g class="arrow-line"><path class="connection real" stroke-dasharray="" d="  M272.04,-4.4 C229.96,68.55 189.76,147.59 151.43,232.7" style="stroke: rgb(0, 0, 0); stroke-width: 1; fill: none; fill-opacity: 1;"/><g stroke="#000" transform="matrix(0.41024139884518557,-0.9119769704732381,0.9119769704732381,0.41024139884518557,150.85261075697247,233.9875005123102)" style="stroke: rgb(0, 0, 0); stroke-width: 1;"><path d=" M10.93,-3.29 Q4.96,-0.45 0,0 Q4.96,0.45 10.93,3.29"/></g></g></g><g class="connection-group"><g class="arrow-line"><path class="connection real" stroke-dasharray="" d="  M150.51,279.99 C206.69,410.72 257.04,486.17 301.55,506.34" style="stroke: rgb(0, 0, 0); stroke-width: 1; fill: none; fill-opacity: 1;"/><g stroke="#000" transform="matrix(-0.9189289457700576,-0.3944231137064999,0.3944231137064999,-0.9189289457700576,302.8997822735517,506.93333419810335)" style="stroke: rgb(0, 0, 0); stroke-width: 1;"><path d=" M10.93,-3.29 Q4.96,-0.45 0,0 Q4.96,0.45 10.93,3.29"/></g></g></g><g class="connection-group"><g class="arrow-line"><path class="connection real" stroke-dasharray="" d="  M321.59,464.24 L325.46,504.94" style="stroke: rgb(0, 0, 0); stroke-width: 1; fill: none; fill-opacity: 1;"/><g stroke="#000" transform="matrix(-0.0946295754202309,-0.9955125531382248,0.9955125531382248,-0.0946295754202309,325.6538471920096,506.933334350586)" style="stroke: rgb(0, 0, 0); stroke-width: 1;"><path d=" M10.93,-3.29 Q4.96,-0.45 0,0 Q4.96,0.45 10.93,3.29"/></g></g></g><g class="connection-group"><g class="arrow-line"><path class="connection real" stroke-dasharray="" d="  M34.11,203.42 C-103.76,470.65 -33.58,593.28 244.67,571.32" style="stroke: rgb(0, 0, 0); stroke-width: 1; fill: none; fill-opacity: 1;"/><g stroke="#000" transform="matrix(-0.9969036248537924,0.0786330894303996,-0.0786330894303996,-0.9969036248537924,244.6666709277652,571.3244976402357)" style="stroke: rgb(0, 0, 0); stroke-width: 1;"><path d=" M10.93,-3.29 Q4.96,-0.45 0,0 Q4.96,0.45 10.93,3.29"/></g></g></g><g class="connection-group"><g class="arrow-line"><path class="connection real" stroke-dasharray="" d="  M-49.33,-0.73 L-41.64,234.27" style="stroke: rgb(0, 0, 0); stroke-width: 1; fill: none; fill-opacity: 1;"/><g stroke="#000" transform="matrix(-0.03263186295825899,-0.9994674389493003,0.9994674389493003,-0.03263186295825899,-41.574254889237295,236.26666768391925)" style="stroke: rgb(0, 0, 0); stroke-width: 1;"><path d=" M10.93,-3.29 Q4.96,-0.45 0,0 Q4.96,0.45 10.93,3.29"/></g></g></g><g class="connection-group"><g class="arrow-line"><path class="connection real" stroke-dasharray="" d="  M147.91,279.99 C183.74,393.25 229.28,484.34 284.54,553.23" style="stroke: rgb(0, 0, 0); stroke-width: 1; fill: none; fill-opacity: 1;"/><g stroke="#000" transform="matrix(-0.6275554844284547,-0.7785718425192165,0.7785718425192165,-0.6275554844284547,285.3696626098888,554.2666676782299)" style="stroke: rgb(0, 0, 0); stroke-width: 1;"><path d=" M10.93,-3.29 Q4.96,-0.45 0,0 Q4.96,0.45 10.93,3.29"/></g></g></g><g class="connection-group"><g class="arrow-line"><path class="connection real" stroke-dasharray="" d="  M336.17,74.93 C381.52,139.81 446.21,192.39 530.24,232.66" style="stroke: rgb(0, 0, 0); stroke-width: 1; fill: none; fill-opacity: 1;"/><g stroke="#000" transform="matrix(-0.902735506080283,-0.4301960088866184,0.4301960088866184,-0.902735506080283,531.5118773623483,233.26666768542998)" style="stroke: rgb(0, 0, 0); stroke-width: 1;"><path d=" M10.93,-3.29 Q4.96,-0.45 0,0 Q4.96,0.45 10.93,3.29"/></g></g></g><g class="connection-group"><g class="arrow-line"><path class="connection real" stroke-dasharray="" d="  M715.12,8.6 C908.15,536.57 784.26,728.12 343.44,583.27" style="stroke: rgb(0, 0, 0); stroke-width: 1; fill: none; fill-opacity: 1;"/><g stroke="#000" transform="matrix(0.9500265497824443,0.3121691123549299,-0.3121691123549299,0.9500265497824443,343.44198364110764,583.2666545333318)" style="stroke: rgb(0, 0, 0); stroke-width: 1;"><path d=" M10.93,-3.29 Q4.96,-0.45 0,0 Q4.96,0.45 10.93,3.29"/></g></g></g><g class="connection-group"><g class="arrow-line"><path class="connection real" stroke-dasharray="" d="  M227.78,188.27 C173.53,282.67 179.53,338.51 245.77,355.8" style="stroke: rgb(0, 0, 0); stroke-width: 1; fill: none; fill-opacity: 1;"/><g stroke="#000" transform="matrix(-0.9694881493450549,-0.24513818201067827,0.24513818201067827,-0.9694881493450549,246.7705245883042,356.05416819215975)" style="stroke: rgb(0, 0, 0); stroke-width: 1;"><path d=" M10.93,-3.29 Q4.96,-0.45 0,0 Q4.96,0.45 10.93,3.29"/></g></g></g><g class="connection-group"><g class="arrow-line"><path class="connection real" stroke-dasharray="" d="  M345.13,-70.5 L300.11,-34.65" style="stroke: rgb(0, 0, 0); stroke-width: 1; fill: none; fill-opacity: 1;"/><g stroke="#000" transform="matrix(0.7822821016875399,-0.6229243239586374,0.6229243239586374,0.7822821016875399,298.5405947777904,-33.399998982747405)" style="stroke: rgb(0, 0, 0); stroke-width: 1;"><path d=" M10.93,-3.29 Q4.96,-0.45 0,0 Q4.96,0.45 10.93,3.29"/></g></g></g><g class="connection-group"><g class="arrow-line"><path class="connection real" stroke-dasharray="" d="  M311.33,-85.41 C107.69,-88.94 -7.81,-70.79 -35.14,-30.95" style="stroke: rgb(0, 0, 0); stroke-width: 1; fill: none; fill-opacity: 1;"/><g stroke="#000" transform="matrix(0.535826794978996,-0.8443279255020155,0.8443279255020155,0.535826794978996,-35.9461538544692,-29.73333226142684)" style="stroke: rgb(0, 0, 0); stroke-width: 1;"><path d=" M10.93,-3.29 Q4.96,-0.45 0,0 Q4.96,0.45 10.93,3.29"/></g></g></g><g class="connection-group"><g class="arrow-line"><path class="connection real" stroke-dasharray="" d="  M415.33,-84.36 C521.94,-86.6 611.22,-65.5 683.19,-21.07" style="stroke: rgb(0, 0, 0); stroke-width: 1; fill: none; fill-opacity: 1;"/><g stroke="#000" transform="matrix(-0.8490639045864417,-0.5282901531624699,0.5282901531624699,-0.8490639045864417,684.2728480668957,-20.399998971788136)" style="stroke: rgb(0, 0, 0); stroke-width: 1;"><path d=" M10.93,-3.29 Q4.96,-0.45 0,0 Q4.96,0.45 10.93,3.29"/></g></g></g><g class="connection-group"><g class="arrow-line"><path class="connection real" stroke-dasharray="" d="  M402.65,-70.5 C459.27,-52.71 509.76,-21.59 554.11,22.87" style="stroke: rgb(0, 0, 0); stroke-width: 1; fill: none; fill-opacity: 1;"/><g stroke="#000" transform="matrix(-0.7030224326734704,-0.711167673026464,0.711167673026464,-0.7030224326734704,555.4486426163867,24.220831553590244)" style="stroke: rgb(0, 0, 0); stroke-width: 1;"><path d=" M10.93,-3.29 Q4.96,-0.45 0,0 Q4.96,0.45 10.93,3.29"/></g></g></g><g class="connection-group"><g class="arrow-line"><path class="connection real" stroke-dasharray="" d="  M279.74,-4.4 L269.84,239.27" style="stroke: rgb(0, 0, 0); stroke-width: 1; fill: none; fill-opacity: 1;"/><g stroke="#000" transform="matrix(0.04065496396934081,-0.9991732451905684,0.9991732451905684,0.04065496396934081,269.75616909385116,241.2666676839192)" style="stroke: rgb(0, 0, 0); stroke-width: 1;"><path d=" M10.93,-3.29 Q4.96,-0.45 0,0 Q4.96,0.45 10.93,3.29"/></g></g></g><g class="connection-group"><g class="arrow-line"><path class="connection real" stroke-dasharray="" d="  M365.61,-70.5 L411.11,218.96" style="stroke: rgb(0, 0, 0); stroke-width: 1; fill: none; fill-opacity: 1;"/><g stroke="#000" transform="matrix(-0.15522765964452398,-0.9878787241768515,0.9878787241768515,-0.15522765964452398,411.420829295262,220.93333435058582)" style="stroke: rgb(0, 0, 0); stroke-width: 1;"><path d=" M10.93,-3.29 Q4.96,-0.45 0,0 Q4.96,0.45 10.93,3.29"/></g></g></g><g class="connection-group"><g class="arrow-line"><path class="connection real" stroke-dasharray="" d="  M664.24,437.17 C670.52,526.09 565.33,569.79 348.67,568.26" style="stroke: rgb(0, 0, 0); stroke-width: 1; fill: none; fill-opacity: 1;"/><g stroke="#000" transform="matrix(0.9999743970151198,0.007155788862699274,-0.007155788862699274,0.9999743970151198,348.6666522854644,568.2582582620144)" style="stroke: rgb(0, 0, 0); stroke-width: 1;"><path d=" M10.93,-3.29 Q4.96,-0.45 0,0 Q4.96,0.45 10.93,3.29"/></g></g></g><g class="connection-group"><g class="arrow-line"><path class="connection real" stroke-dasharray="" d="  M669.71,145.42 C657.56,237.73 622.66,311.28 565.03,366.11" style="stroke: rgb(0, 0, 0); stroke-width: 1; fill: none; fill-opacity: 1;"/><g stroke="#000" transform="matrix(0.727054171442691,-0.6865800985957735,0.6865800985957735,0.727054171442691,564.1617908711656,366.9333343768324)" style="stroke: rgb(0, 0, 0); stroke-width: 1;"><path d=" M10.93,-3.29 Q4.96,-0.45 0,0 Q4.96,0.45 10.93,3.29"/></g></g></g><g class="connection-group"><g class="arrow-line"><path class="connection real" stroke-dasharray="" d="  M671.59,145.42 L664.66,407.18" style="stroke: rgb(0, 0, 0); stroke-width: 1; fill: none; fill-opacity: 1;"/><g stroke="#000" transform="matrix(0.02652589294024593,-0.9996481265944145,0.9996481265944145,0.02652589294024593,664.604079623738,409.1749954223633)" style="stroke: rgb(0, 0, 0); stroke-width: 1;"><path d=" M10.93,-3.29 Q4.96,-0.45 0,0 Q4.96,0.45 10.93,3.29"/></g></g></g><g class="connection-group"><g class="arrow-line"><path class="connection real" stroke-dasharray="" d="  M370.37,-70.5 C460.67,113.74 485.48,224.42 444.8,261.55" style="stroke: rgb(0, 0, 0); stroke-width: 1; fill: none; fill-opacity: 1;"/><g stroke="#000" transform="matrix(0.7624425110114479,-0.6470559615694443,0.6470559615694443,0.7624425110114479,443.54376290089726,262.65415815856903)" style="stroke: rgb(0, 0, 0); stroke-width: 1;"><path d=" M10.93,-3.29 Q4.96,-0.45 0,0 Q4.96,0.45 10.93,3.29"/></g></g></g><g class="connection-group"><g class="arrow-line"><path class="connection real" stroke-dasharray="" d="  M367.74,-70.5 L515.05,414.69" style="stroke: rgb(155, 155, 155); stroke-opacity: 1; stroke-width: 1; fill: none; fill-opacity: 1;"/><g stroke="rgb(155,155,155)" stroke-opacity="1" transform="matrix(-0.2905351936977562,-0.9568643065884563,0.9568643065884563,-0.2905351936977562,515.6307772781274,416.6000010172529)" style="stroke: rgb(155, 155, 155); stroke-width: 1;"><path d=" M10.93,-3.29 Q4.96,-0.45 0,0 Q4.96,0.45 10.93,3.29"/></g></g></g><g class="connection-group"><g class="arrow-line"><path class="connection real" stroke-dasharray="" d="  M357.03,66.75 L617.54,119" style="stroke: rgb(0, 0, 0); stroke-width: 1; fill: none; fill-opacity: 1;"/><g stroke="#000" transform="matrix(-0.9804776233729444,-0.19663069461542004,0.19663069461542004,-0.9804776233729444,619.499984741211,119.39141069479382)" style="stroke: rgb(0, 0, 0); stroke-width: 1;"><path d=" M10.93,-3.29 Q4.96,-0.45 0,0 Q4.96,0.45 10.93,3.29"/></g></g></g><g class="connection-group"><g class="arrow-line"><path class="connection real" stroke-dasharray="" d="  M311.33,-77.19 C138.43,-53.56 45.64,-20.01 32.96,23.44" style="stroke: rgb(0, 0, 0); stroke-width: 1; fill: none; fill-opacity: 1;"/><g stroke="#000" transform="matrix(0.2454765822744361,-0.9694025209142288,0.9694025209142288,0.2454765822744361,32.60217087422643,24.762491835170817)" style="stroke: rgb(0, 0, 0); stroke-width: 1;"><path d=" M10.93,-3.29 Q4.96,-0.45 0,0 Q4.96,0.45 10.93,3.29"/></g></g></g><g class="connection-group"><g class="arrow-line"><path class="connection real" stroke-dasharray="" d="  M34.2,56.76 L62.3,104.75" style="stroke: rgb(0, 0, 0); stroke-width: 1; fill: none; fill-opacity: 1;"/><g stroke="#000" transform="matrix(-0.5052808863647792,-0.8629549384958771,0.8629549384958771,-0.5052808863647792,63.30984917238001,106.4749984741211)" style="stroke: rgb(0, 0, 0); stroke-width: 1;"><path d=" M10.93,-3.29 Q4.96,-0.45 0,0 Q4.96,0.45 10.93,3.29"/></g></g></g></g><g><g><rect rx="0" ry="0" x="228.33333333333326" y="-33.39999898274741" width="104" height="29" style="stroke: rgb(0, 0, 0); stroke-width: 1; fill: rgb(233, 17, 17); fill-opacity: 0.69;"/></g><g><rect rx="0" ry="0" x="90.66666666666666" y="-12.579167683919287" width="104" height="49" style="stroke: rgb(0, 0, 0); stroke-width: 1; fill: none; fill-opacity: 1;"/></g><g><rect rx="0" ry="0" x="103.66666666666669" y="59.266667683919266" width="104" height="29" style="stroke: rgb(0, 0, 0); stroke-width: 1; fill: rgb(233, 17, 17); fill-opacity: 0.69;"/></g><g><rect rx="0" ry="0" x="195.19998168945307" y="159.26666768391925" width="81" height="29" style="stroke: rgb(0, 0, 0); stroke-width: 1; fill: none; fill-opacity: 1;"/></g><g><rect rx="0" ry="0" x="382.19998168945307" y="220.93333435058588" width="63" height="29" style="stroke: rgb(0, 0, 0); stroke-width: 1; fill: rgb(184, 233, 134); fill-opacity: 1;"/></g><g><rect rx="0" ry="0" x="294.03331502278644" y="45.93333435058588" width="63" height="29" style="stroke: rgb(0, 0, 0); stroke-width: 1; fill: rgb(233, 17, 17); fill-opacity: 0.69;"/></g><g><rect rx="0" ry="0" x="296.6666666666666" y="144.93333435058588" width="104" height="29" style="stroke: rgb(0, 0, 0); stroke-width: 1; fill: rgb(233, 17, 17); fill-opacity: 0.69;"/></g><g><rect rx="0" ry="0" x="608.6666666666664" y="549.9333343505858" width="104" height="29" style="stroke: rgb(0, 0, 0); stroke-width: 1; fill: rgb(184, 233, 134); fill-opacity: 1;"/></g><g><rect rx="0" ry="0" x="207.16666666666669" y="241.2666676839192" width="124" height="29" style="stroke: rgb(0, 0, 0); stroke-opacity: 1; stroke-width: 1; fill: rgb(184, 233, 134); fill-opacity: 1;"/></g><g><rect rx="0" ry="0" x="244.66666666666657" y="554.2666676839191" width="104" height="29" style="stroke: rgb(0, 0, 0); stroke-width: 1; fill: rgb(184, 233, 134); fill-opacity: 1;"/></g><g><rect rx="0" ry="0" x="-77.80001831054693" y="-29.733332316080748" width="56" height="29" style="stroke: rgb(0, 0, 0); stroke-width: 1; fill: none; fill-opacity: 1;"/></g><g><rect rx="0" ry="0" x="10.800008138020779" y="150.4208323160807" width="73" height="53" style="stroke: rgb(0, 0, 0); stroke-width: 1; fill: none; fill-opacity: 1;"/></g><g><rect rx="0" ry="0" x="28.30000813802077" y="106.4749984741211" width="87" height="29" style="stroke: rgb(0, 0, 0); stroke-width: 1; fill: rgb(233, 17, 17); fill-opacity: 0.69;"/></g><g><rect rx="0" ry="0" x="366.8666636149089" y="262.65416717529297" width="128" height="31" style="stroke: rgb(0, 0, 0); stroke-width: 1; fill: rgb(184, 233, 134); fill-opacity: 1;"/></g><g><rect rx="0" ry="0" x="212.0999755859375" y="294.2416661580404" width="89" height="30" style="stroke: rgb(0, 0, 0); stroke-width: 1; fill: rgb(184, 233, 134); fill-opacity: 1;"/></g><g><rect rx="0" ry="0" x="355.03331502278644" y="310.4541702270507" width="80" height="24" style="stroke: rgb(0, 0, 0); stroke-width: 1; fill: rgb(184, 233, 134); fill-opacity: 1;"/></g><g><rect rx="0" ry="0" x="228.19999694824213" y="356.0541648864746" width="122" height="37" style="stroke: rgb(0, 0, 0); stroke-width: 1; fill: rgb(184, 233, 134); fill-opacity: 1;"/></g><g><rect rx="0" ry="0" x="84.36666361490887" y="401.6083337465923" width="83" height="29" style="stroke: rgb(0, 0, 0); stroke-width: 1; fill: rgb(184, 233, 134); fill-opacity: 1;"/></g><g><rect rx="0" ry="0" x="31.366663614908845" y="486.9875005086262" width="144" height="27" style="stroke: rgb(0, 0, 0); stroke-width: 1; fill: rgb(184, 233, 134); fill-opacity: 1;"/></g><g><rect rx="0" ry="0" x="-1.033325195312493" y="428.57499949137366" width="63" height="27" style="stroke: rgb(0, 0, 0); stroke-width: 1; fill: rgb(184, 233, 134); fill-opacity: 1;"/></g><g><rect rx="0" ry="0" x="516.1999816894532" y="366.933334350586" width="67" height="29" style="stroke: rgb(0, 0, 0); stroke-width: 1; fill: rgb(184, 233, 134); fill-opacity: 1;"/></g><g><rect rx="0" ry="0" x="418.03333028157556" y="513.2666676839192" width="88" height="29" style="stroke: rgb(0, 0, 0); stroke-width: 1; fill: rgb(184, 233, 134); fill-opacity: 1;"/></g><g><rect rx="0" ry="0" x="469.0333150227865" y="416.6000010172528" width="102" height="29" style="stroke: rgb(0, 0, 0); stroke-width: 1; fill: rgb(184, 233, 134); fill-opacity: 1;"/></g><g><rect rx="0" ry="0" x="284.53333028157556" y="506.93333435058594" width="85" height="29" style="stroke: rgb(0, 0, 0); stroke-width: 1; fill: rgb(184, 233, 134); fill-opacity: 1;"/></g><g><rect rx="0" ry="0" x="481.3999786376953" y="309.2666676839195" width="83" height="29" style="stroke: rgb(0, 0, 0); stroke-width: 1; fill: rgb(184, 233, 134); fill-opacity: 1;"/></g><g><rect rx="0" ry="0" x="516.3666483561196" y="24.220831553141352" width="114" height="34" style="stroke: rgb(0, 0, 0); stroke-width: 1; fill: rgb(255, 255, 255); fill-opacity: 1;"/></g><g><rect rx="0" ry="0" x="502.23331197102857" y="233.26666768391937" width="116" height="29" style="stroke: rgb(0, 0, 0); stroke-width: 1; fill: rgb(184, 233, 134); fill-opacity: 1;"/></g><g><rect rx="0" ry="0" x="36.39999389648443" y="299.2958323160807" width="89" height="45" style="stroke: rgb(0, 0, 0); stroke-width: 1; fill: rgb(184, 233, 134); fill-opacity: 1;"/></g><g><rect rx="0" ry="0" x="-79.60000610351568" y="236.26666768391925" width="77" height="29" style="stroke: rgb(0, 0, 0); stroke-width: 1; fill: rgb(184, 233, 134); fill-opacity: 1;"/></g><g><rect rx="0" ry="0" x="104.39999389648432" y="233.98750050862628" width="72" height="46" style="stroke: rgb(0, 0, 0); stroke-width: 1; fill: rgb(184, 233, 134); fill-opacity: 1;"/></g><g><rect rx="0" ry="0" x="262.3333333333334" y="406.24166107177723" width="113" height="58" style="stroke: rgb(0, 0, 0); stroke-width: 1; fill: rgb(184, 233, 134); fill-opacity: 1;"/></g><g><rect rx="0" ry="0" x="678.3666483561199" y="-20.399998982747448" width="63" height="29" style="stroke: rgb(0, 0, 0); stroke-width: 1; fill: rgb(230, 216, 48); fill-opacity: 0.69;"/></g><g><rect rx="0" ry="0" x="311.33333333333326" y="-99.5" width="104" height="29" style="stroke: rgb(0, 0, 0); stroke-width: 1; fill: rgb(233, 17, 17); fill-opacity: 0.69;"/></g><g><rect rx="0" ry="0" x="614.2332967122395" y="409.1749954223633" width="100" height="28" style="stroke: rgb(0, 0, 0); stroke-width: 1; fill: rgb(184, 233, 134); fill-opacity: 1;"/></g><g><rect rx="0" ry="0" x="619.4999847412109" y="114.42083231608083" width="105" height="31" style="stroke: rgb(0, 0, 0); stroke-width: 1; fill: rgb(255, 255, 255); fill-opacity: 1;"/></g><g><rect rx="0" ry="0" x="-28.16667683919271" y="24.76249186197917" width="106" height="32" style="stroke: rgb(0, 0, 0); stroke-width: 1; fill: rgb(233, 17, 17); fill-opacity: 0.69;"/></g></g><g/></svg>
        <svg xmlns="http://www.w3.org/2000/svg" xmlns:xlink="http://www.w3.org/1999/xlink" width="660" height="617.3250122070312" style="width:660px;height:617.3250122070312px;font-family:Asana-Math, Asana;background:#FFF;"><g><g><g><text x="257.8125" y="-27.087509155273438" style="white-space:pre;stroke:none;fill:rgb(0,0,0);fill-opacity:1;font-size:13.5px;font-family:Arial, Helvetica, sans-serif;font-weight:700;font-style:normal;dominant-baseline:text-before-edge;text-decoration:none solid rgb(0, 0, 0);">perfect</text></g></g></g><g><g><g><text x="99.88751220703125" y="-6.4375" style="white-space:pre;stroke:none;fill:rgb(0,0,0);fill-opacity:1;font-size:13.5px;font-family:Arial, Helvetica, sans-serif;font-weight:400;font-style:normal;dominant-baseline:text-before-edge;text-decoration:none solid rgb(0, 0, 0);">Line Graph of </text><text x="117.9000244140625" y="12.462493896484375" style="white-space:pre;stroke:none;fill:rgb(0,0,0);fill-opacity:1;font-size:13.5px;font-family:Arial, Helvetica, sans-serif;font-weight:400;font-style:normal;dominant-baseline:text-before-edge;text-decoration:none solid rgb(0, 0, 0);">Bipartite</text></g></g></g><g><g><g><text x="111.7750244140625" y="65.5625" style="white-space:pre;stroke:none;fill:rgb(0,0,0);fill-opacity:1;font-size:13.5px;font-family:Arial, Helvetica, sans-serif;font-weight:700;font-style:normal;dominant-baseline:text-before-edge;text-decoration:none solid rgb(0, 0, 0);">comparability</text></g></g></g><g><g><g><text x="202.29376220703125" y="165.56248474121094" style="white-space:pre;stroke:none;fill:rgb(0,0,0);fill-opacity:1;font-size:13.5px;font-family:Arial, Helvetica, sans-serif;font-weight:400;font-style:normal;dominant-baseline:text-before-edge;text-decoration:none solid rgb(0, 0, 0);">tolerance ?</text></g></g></g><g><g><g><text x="392.06878662109375" y="227.22499084472656" style="white-space:pre;stroke:none;fill:rgb(0,0,0);fill-opacity:1;font-size:13.5px;font-family:Arial, Helvetica, sans-serif;font-weight:400;font-style:normal;dominant-baseline:text-before-edge;text-decoration:none solid rgb(0, 0, 0);">AT-free</text></g></g></g><g><g><g><text x="301.1500244140625" y="52.22499084472656" style="white-space:pre;stroke:none;fill:rgb(0,0,0);fill-opacity:1;font-size:13.5px;font-family:Arial, Helvetica, sans-serif;font-weight:700;font-style:normal;dominant-baseline:text-before-edge;text-decoration:none solid rgb(0, 0, 0);">chordal</text></g></g></g><g><g><g><text x="334.78753662109375" y="151.22499084472656" style="white-space:pre;stroke:none;fill:rgb(0,0,0);fill-opacity:1;font-size:13.5px;font-family:Arial, Helvetica, sans-serif;font-weight:700;font-style:normal;dominant-baseline:text-before-edge;text-decoration:none solid rgb(0, 0, 0);">split</text></g></g></g><g><g><g><g><g><g><g transform="matrix(1,0,0,1,619.737548828125,569.1250274658203)"><path transform="matrix(0.015300000000000001,0,0,-0.015300000000000001,0,0)" d="M240 722L228 733C176 707 140 698 68 691L64 670L112 670C136 670 146 663 146 646C146 638 145 629 144 622L96 354C82 279 66 210 14 1L23 -9L90 8L113 132C122 180 146 225 180 259C249 59 281 -9 306 -9C319 -9 343 4 387 35L433 67L425 86L382 62C368 54 361 52 353 52C343 52 336 58 327 75C292 139 270 193 231 316L245 330C306 391 352 416 402 416C410 416 421 414 438 410L455 473C437 479 419 482 407 482C341 482 258 405 133 230Z" stroke="rgb(0,0,0)" stroke-opacity="1" stroke-width="8" fill="rgb(0,0,0)" fill-opacity="1"></path></g></g></g></g></g><g><text x="626.9000244140625" y="557.0249786376953" style="white-space:pre;stroke:none;fill:rgb(0,0,0);fill-opacity:1;font-size:13.5px;font-family:Arial, Helvetica, sans-serif;font-weight:400;font-style:normal;dominant-baseline:text-before-edge;text-decoration:none solid rgb(0, 0, 0);">-tree, fixed </text></g><g><g><g><g><g transform="matrix(1,0,0,1,694.4124755859375,569.1250274658203)"><path transform="matrix(0.015300000000000001,0,0,-0.015300000000000001,0,0)" d="M240 722L228 733C176 707 140 698 68 691L64 670L112 670C136 670 146 663 146 646C146 638 145 629 144 622L96 354C82 279 66 210 14 1L23 -9L90 8L113 132C122 180 146 225 180 259C249 59 281 -9 306 -9C319 -9 343 4 387 35L433 67L425 86L382 62C368 54 361 52 353 52C343 52 336 58 327 75C292 139 270 193 231 316L245 330C306 391 352 416 402 416C410 416 421 414 438 410L455 473C437 479 419 482 407 482C341 482 258 405 133 230Z" stroke="rgb(0,0,0)" stroke-opacity="1" stroke-width="8" fill="rgb(0,0,0)" fill-opacity="1"></path></g></g></g></g></g></g></g><g><g><g><text x="222.2750244140625" y="247.56248474121094" style="white-space:pre;stroke:none;fill:rgb(0,0,0);fill-opacity:1;font-size:13.5px;font-family:Arial, Helvetica, sans-serif;font-weight:400;font-style:normal;dominant-baseline:text-before-edge;text-decoration:none solid rgb(0, 0, 0);">cocomparability</text></g></g></g><g><g><g><text x="285.0250244140625" y="560.5625152587891" style="white-space:pre;stroke:none;fill:rgb(0,0,0);fill-opacity:1;font-size:13.5px;font-family:Arial, Helvetica, sans-serif;font-weight:400;font-style:normal;dominant-baseline:text-before-edge;text-decoration:none solid rgb(0, 0, 0);">tree</text></g></g></g><g><g><g><text x="-65.55624389648438" y="-23.425003051757812" style="white-space:pre;stroke:none;fill:rgb(0,0,0);fill-opacity:1;font-size:13.5px;font-family:Arial, Helvetica, sans-serif;font-weight:400;font-style:normal;dominant-baseline:text-before-edge;text-decoration:none solid rgb(0, 0, 0);">circle</text></g></g></g><g><g><g><text x="23.28125" y="156.56248474121094" style="white-space:pre;stroke:none;fill:rgb(0,0,0);fill-opacity:1;font-size:13.5px;font-family:Arial, Helvetica, sans-serif;font-weight:400;font-style:normal;dominant-baseline:text-before-edge;text-decoration:none solid rgb(0, 0, 0);">chordal </text><text x="22.54376220703125" y="175.46250915527344" style="white-space:pre;stroke:none;fill:rgb(0,0,0);fill-opacity:1;font-size:13.5px;font-family:Arial, Helvetica, sans-serif;font-weight:400;font-style:normal;dominant-baseline:text-before-edge;text-decoration:none solid rgb(0, 0, 0);">Bipartite</text></g></g></g><g><g><g><text x="45.17498779296875" y="112.65000915527344" style="white-space:pre;stroke:none;fill:rgb(0,0,0);fill-opacity:1;font-size:13.5px;font-family:Arial, Helvetica, sans-serif;font-weight:700;font-style:normal;dominant-baseline:text-before-edge;text-decoration:none solid rgb(0, 0, 0);">bipartite</text></g></g></g><g><g><g><text x="372.13751220703125" y="269.47499084472656" style="white-space:pre;stroke:none;fill:rgb(0,0,0);fill-opacity:1;font-size:13.5px;font-family:Arial, Helvetica, sans-serif;font-weight:400;font-style:normal;dominant-baseline:text-before-edge;text-decoration:none solid rgb(0, 0, 0);">Circular </text></g><g><g><g><g><g transform="matrix(1,0,0,1,422.38751220703125,281.57500915527345)"><path transform="matrix(0.015300000000000001,0,0,-0.015300000000000001,0,0)" d="M240 722L228 733C176 707 140 698 68 691L64 670L112 670C136 670 146 663 146 646C146 638 145 629 144 622L96 354C82 279 66 210 14 1L23 -9L90 8L113 132C122 180 146 225 180 259C249 59 281 -9 306 -9C319 -9 343 4 387 35L433 67L425 86L382 62C368 54 361 52 353 52C343 52 336 58 327 75C292 139 270 193 231 316L245 330C306 391 352 416 402 416C410 416 421 414 438 410L455 473C437 479 419 482 407 482C341 482 258 405 133 230Z" stroke="rgb(0,0,0)" stroke-opacity="1" stroke-width="8" fill="rgb(0,0,0)" fill-opacity="1"></path></g></g></g></g></g><g><text x="429.54998779296875" y="269.47499084472656" style="white-space:pre;stroke:none;fill:rgb(0,0,0);fill-opacity:1;font-size:13.5px;font-family:Arial, Helvetica, sans-serif;font-weight:400;font-style:normal;dominant-baseline:text-before-edge;text-decoration:none solid rgb(0, 0, 0);">-trapezoid</text></g></g></g><g><g><g><g><g><g><g transform="matrix(1,0,0,1,222.9937744140625,313.4125030517578)"><path transform="matrix(0.015300000000000001,0,0,-0.015300000000000001,0,0)" d="M240 722L228 733C176 707 140 698 68 691L64 670L112 670C136 670 146 663 146 646C146 638 145 629 144 622L96 354C82 279 66 210 14 1L23 -9L90 8L113 132C122 180 146 225 180 259C249 59 281 -9 306 -9C319 -9 343 4 387 35L433 67L425 86L382 62C368 54 361 52 353 52C343 52 336 58 327 75C292 139 270 193 231 316L245 330C306 391 352 416 402 416C410 416 421 414 438 410L455 473C437 479 419 482 407 482C341 482 258 405 133 230Z" stroke="rgb(0,0,0)" stroke-opacity="1" stroke-width="8" fill="rgb(0,0,0)" fill-opacity="1"></path></g></g></g></g></g><g><text x="230.15625" y="301.31248474121094" style="white-space:pre;stroke:none;fill:rgb(0,0,0);fill-opacity:1;font-size:13.5px;font-family:Arial, Helvetica, sans-serif;font-weight:400;font-style:normal;dominant-baseline:text-before-edge;text-decoration:none solid rgb(0, 0, 0);">-trapezoid</text></g></g></g><g><g><g><text x="367.26251220703125" y="316.6062469482422" style="white-space:pre;stroke:none;fill:rgb(0,0,0);fill-opacity:1;font-size:13.5px;font-family:Arial, Helvetica, sans-serif;font-weight:400;font-style:normal;dominant-baseline:text-before-edge;text-decoration:none solid rgb(0, 0, 0);">trapezoid</text></g></g></g><g><g><g><text x="233.28753662109375" y="362.2312774658203" style="white-space:pre;stroke:none;fill:rgb(0,0,0);fill-opacity:1;font-size:13.5px;font-family:Arial, Helvetica, sans-serif;font-weight:400;font-style:normal;dominant-baseline:text-before-edge;text-decoration:none solid rgb(0, 0, 0);">bounded tolerance</text></g></g></g><g><g><g><text x="90.21875" y="407.56251525878906" style="white-space:pre;stroke:none;fill:rgb(0,0,0);fill-opacity:1;font-size:13.5px;font-family:Arial, Helvetica, sans-serif;font-weight:400;font-style:normal;dominant-baseline:text-before-edge;text-decoration:none solid rgb(0, 0, 0);">permutation</text></g></g></g><g><g><g><text x="41.84375" y="492.90626525878906" style="white-space:pre;stroke:none;fill:rgb(0,0,0);fill-opacity:1;font-size:13.5px;font-family:Arial, Helvetica, sans-serif;font-weight:400;font-style:normal;dominant-baseline:text-before-edge;text-decoration:none solid rgb(0, 0, 0);">bipartite permutation</text></g></g></g><g><g><g><text x="9.07501220703125" y="434.84999084472656" style="white-space:pre;stroke:none;fill:rgb(0,0,0);fill-opacity:1;font-size:13.5px;font-family:Arial, Helvetica, sans-serif;font-weight:400;font-style:normal;dominant-baseline:text-before-edge;text-decoration:none solid rgb(0, 0, 0);">convex</text></g></g></g><g><g><g><text x="527.9437255859375" y="373.22499084472656" style="white-space:pre;stroke:none;fill:rgb(0,0,0);fill-opacity:1;font-size:13.5px;font-family:Arial, Helvetica, sans-serif;font-weight:400;font-style:normal;dominant-baseline:text-before-edge;text-decoration:none solid rgb(0, 0, 0);">interval</text></g></g></g><g><g><g><text x="434.26251220703125" y="519.5625152587891" style="white-space:pre;stroke:none;fill:rgb(0,0,0);fill-opacity:1;font-size:13.5px;font-family:Arial, Helvetica, sans-serif;font-weight:400;font-style:normal;dominant-baseline:text-before-edge;text-decoration:none solid rgb(0, 0, 0);">threshold</text></g></g></g><g><g><g><text x="490.1875" y="423.7000274658203" style="white-space:pre;stroke:none;fill:rgb(0,0,0);fill-opacity:1;font-size:13.5px;font-family:Arial, Helvetica, sans-serif;font-weight:400;font-style:normal;dominant-baseline:text-before-edge;text-decoration:none solid rgb(0, 0, 0);">Dilworth </text></g><g><g><g><g><g transform="matrix(1,0,0,1,542.6875,435.8000152587891)"><path transform="matrix(0.015300000000000001,0,0,-0.015300000000000001,0,0)" d="M240 722L228 733C176 707 140 698 68 691L64 670L112 670C136 670 146 663 146 646C146 638 145 629 144 622L96 354C82 279 66 210 14 1L23 -9L90 8L113 132C122 180 146 225 180 259C249 59 281 -9 306 -9C319 -9 343 4 387 35L433 67L425 86L382 62C368 54 361 52 353 52C343 52 336 58 327 75C292 139 270 193 231 316L245 330C306 391 352 416 402 416C410 416 421 414 438 410L455 473C437 479 419 482 407 482C341 482 258 405 133 230Z" stroke="rgb(0,0,0)" stroke-opacity="1" stroke-width="8" fill="rgb(0,0,0)" fill-opacity="1"></path></g></g></g></g></g></g></g><g><g><g><text x="302.63128662109375" y="513.2249908447266" style="white-space:pre;stroke:none;fill:rgb(0,0,0);fill-opacity:1;font-size:13.5px;font-family:Arial, Helvetica, sans-serif;font-weight:400;font-style:normal;dominant-baseline:text-before-edge;text-decoration:none solid rgb(0, 0, 0);">cograph</text></g></g></g><g><g><g><text x="489.9000244140625" y="315.56248474121094" style="white-space:pre;stroke:none;fill:rgb(0,0,0);fill-opacity:1;font-size:13.5px;font-family:Arial, Helvetica, sans-serif;font-weight:400;font-style:normal;dominant-baseline:text-before-edge;text-decoration:none solid rgb(0, 0, 0);">circular arc</text></g></g></g><g><g><g><text x="521.9188232421875" y="31.36248779296875" style="white-space:pre;stroke:none;fill:rgb(0,0,0);fill-opacity:1;font-size:13.5px;font-family:Arial, Helvetica, sans-serif;font-weight:400;font-style:normal;dominant-baseline:text-before-edge;text-decoration:none solid rgb(0, 0, 0);">dually chordal ? </text></g><g><g><g></g></g></g></g></g><g><g><g><text x="512.5875244140625" y="239.56248474121094" style="white-space:pre;stroke:none;fill:rgb(0,0,0);fill-opacity:1;font-size:13.5px;font-family:Arial, Helvetica, sans-serif;font-weight:400;font-style:normal;dominant-baseline:text-before-edge;text-decoration:none solid rgb(0, 0, 0);">strongly chordal</text></g></g></g><g><g><g><text x="57.25628662109375" y="305.5124969482422" style="white-space:pre;stroke:none;fill:rgb(0,0,0);fill-opacity:1;font-size:13.5px;font-family:Arial, Helvetica, sans-serif;font-weight:400;font-style:normal;dominant-baseline:text-before-edge;text-decoration:none solid rgb(0, 0, 0);">circular </text><text x="45.2437744140625" y="324.41249084472656" style="white-space:pre;stroke:none;fill:rgb(0,0,0);fill-opacity:1;font-size:13.5px;font-family:Arial, Helvetica, sans-serif;font-weight:400;font-style:normal;dominant-baseline:text-before-edge;text-decoration:none solid rgb(0, 0, 0);">permutation</text></g></g></g><g><g><g><g><g><g><g transform="matrix(1,0,0,1,-70.56875610351562,255.46249084472657)"><path transform="matrix(0.015300000000000001,0,0,-0.015300000000000001,0,0)" d="M240 722L228 733C176 707 140 698 68 691L64 670L112 670C136 670 146 663 146 646C146 638 145 629 144 622L96 354C82 279 66 210 14 1L23 -9L90 8L113 132C122 180 146 225 180 259C249 59 281 -9 306 -9C319 -9 343 4 387 35L433 67L425 86L382 62C368 54 361 52 353 52C343 52 336 58 327 75C292 139 270 193 231 316L245 330C306 391 352 416 402 416C410 416 421 414 438 410L455 473C437 479 419 482 407 482C341 482 258 405 133 230Z" stroke="rgb(0,0,0)" stroke-opacity="1" stroke-width="8" fill="rgb(0,0,0)" fill-opacity="1"></path></g></g></g></g></g><g><text x="-63.40625" y="243.3625030517578" style="white-space:pre;stroke:none;fill:rgb(0,0,0);fill-opacity:1;font-size:13.5px;font-family:Arial, Helvetica, sans-serif;font-weight:400;font-style:normal;dominant-baseline:text-before-edge;text-decoration:none solid rgb(0, 0, 0);">-polygon</text></g></g></g><g><g><g><text x="113.3687744140625" y="239.90000915527344" style="white-space:pre;stroke:none;fill:rgb(0,0,0);fill-opacity:1;font-size:13.5px;font-family:Arial, Helvetica, sans-serif;font-weight:400;font-style:normal;dominant-baseline:text-before-edge;text-decoration:none solid rgb(0, 0, 0);">distance </text><text x="110.3687744140625" y="258.8000030517578" style="white-space:pre;stroke:none;fill:rgb(0,0,0);fill-opacity:1;font-size:13.5px;font-family:Arial, Helvetica, sans-serif;font-weight:400;font-style:normal;dominant-baseline:text-before-edge;text-decoration:none solid rgb(0, 0, 0);">hereditary</text></g></g></g><g><g><g><g><g><g><g transform="matrix(1,0,0,1,266.69378662109375,425.1312530517578)"><path transform="matrix(0.015300000000000001,0,0,-0.015300000000000001,0,0)" d="M286 646L392 650C454 650 494 641 495 626L503 537L527 537C530 600 537 651 548 689C526 691 498 692 481 692L440 691L275 689L246 689C221 689 181 690 143 691L94 692L91 664L147 662C171 661 182 652 182 635C182 621 178 589 173 559L98 125C81 33 81 32 40 28L4 25L0 -3L34 -2C74 -1 106 0 127 0C145 0 174 -1 213 -2L265 -3L268 25L204 28C177 29 168 37 168 57C168 63 169 74 170 78L206 301L323 301C350 301 381 300 429 298L455 297L474 342L470 349C389 345 329 343 251 343L214 343L260 614C263 630 264 635 269 646ZM923 365C926 403 931 435 939 476C928 481 924 482 919 482C888 482 857 458 821 407C782 351 743 291 727 256L759 408C763 425 765 438 765 450C765 470 757 482 742 482C721 482 683 461 609 408L581 388L588 368L620 389C648 407 659 412 668 412C678 412 685 403 685 390C685 332 642 126 602 -2L612 -9C627 -4 643 -1 666 4L679 6L705 126C723 209 746 262 790 319C824 363 851 384 873 384C888 384 898 379 909 365ZM1271 111L1247 94C1194 56 1146 36 1110 36C1063 36 1034 73 1034 133C1034 158 1037 185 1042 214C1059 218 1168 248 1193 259C1278 296 1317 342 1317 404C1317 451 1283 482 1233 482C1165 496 1055 423 1018 349C988 299 958 180 958 113C958 35 1002 -11 1074 -11C1131 -11 1187 17 1279 92ZM1056 274C1073 343 1093 386 1122 412C1140 428 1171 440 1195 440C1224 440 1243 420 1243 388C1243 344 1208 297 1156 272C1128 258 1092 247 1047 237ZM1659 111L1635 94C1582 56 1534 36 1498 36C1451 36 1422 73 1422 133C1422 158 1425 185 1430 214C1447 218 1556 248 1581 259C1666 296 1705 342 1705 404C1705 451 1671 482 1621 482C1553 496 1443 423 1406 349C1376 299 1346 180 1346 113C1346 35 1390 -11 1462 -11C1519 -11 1575 17 1667 92ZM1444 274C1461 343 1481 386 1510 412C1528 428 1559 440 1583 440C1612 440 1631 420 1631 388C1631 344 1596 297 1544 272C1516 258 1480 247 1435 237Z" stroke="rgb(0,0,0)" stroke-opacity="1" stroke-width="8" fill="rgb(0,0,0)" fill-opacity="1"></path></g></g><g><g transform="matrix(1,0,0,1,292.9937744140625,425.9312408447266)"><path transform="matrix(0.015300000000000001,0,0,-0.015300000000000001,0,0)" d="M146 266C146 526 243 632 301 700L282 726C225 675 60 542 60 266C60 159 85 58 133 -32C168 -99 200 -138 282 -215L301 -194C255 -137 146 -15 146 266Z" stroke="rgb(0,0,0)" stroke-opacity="1" stroke-width="8" fill="rgb(0,0,0)" fill-opacity="1"></path></g></g><g><g transform="matrix(1,0,0,1,298.08123779296875,425.1312530517578)"><path transform="matrix(0.015300000000000001,0,0,-0.015300000000000001,0,0)" d="M105 664L160 662C184 661 195 653 195 635L112 125C95 34 94 31 54 28L13 25L9 -3L51 -2C92 -1 123 0 141 0C158 0 187 -1 227 -2L280 -3L283 25L218 28C192 29 182 37 182 58C182 67 183 74 186 93L284 648C320 654 336 656 355 656C457 656 506 612 506 519C506 411 434 323 346 323C324 323 304 328 267 342L269 311C306 293 326 288 355 288C484 288 594 405 594 541C594 642 531 695 412 692L108 692Z" stroke="rgb(0,0,0)" stroke-opacity="1" stroke-width="8" fill="rgb(0,0,0)" fill-opacity="1"></path></g></g><g><g transform="matrix(1,0,0,1,310.46875,425.1312530517578)"><path transform="matrix(0.015300000000000001,0,0,-0.015300000000000001,0,0)" d="M555 243L555 299L51 299L51 243Z" stroke="rgb(0,0,0)" stroke-opacity="1" stroke-width="8" fill="rgb(0,0,0)" fill-opacity="1"></path></g></g><g><g transform="matrix(1,0,0,1,322.78125,425.1312530517578)"><path transform="matrix(0.015300000000000001,0,0,-0.015300000000000001,0,0)" d="M280 181L280 106C280 46 269 32 220 30L158 27L158 -3C291 0 291 0 315 0C339 0 339 0 472 -3L472 27L424 30C375 33 364 46 364 106L364 181C423 181 444 180 472 177L472 248L364 245L365 697L285 667L2 204L2 181ZM280 245L65 245L280 597Z" stroke="rgb(0,0,0)" stroke-opacity="1" stroke-width="8" fill="rgb(0,0,0)" fill-opacity="1"></path></g></g><g><g transform="matrix(1,0,0,1,333.46875,425.1312530517578)"><path transform="matrix(0.015300000000000001,0,0,-0.015300000000000001,0,0)" d="M604 241L604 300L364 300L364 538L305 538L305 300L65 300L65 241L305 241L305 0L364 0L364 241Z" stroke="rgb(0,0,0)" stroke-opacity="1" stroke-width="8" fill="rgb(0,0,0)" fill-opacity="1"></path></g></g><g><g transform="matrix(1,0,0,1,346.7437744140625,425.1312530517578)"><path transform="matrix(0.015300000000000001,0,0,-0.015300000000000001,0,0)" d="M125 390L69 107C68 99 56 61 56 31C56 6 67 -9 86 -9C121 -9 156 11 234 74L265 99L255 117L210 86C181 66 161 56 150 56C141 56 136 64 136 76C136 102 150 183 179 328L192 390L299 390L310 440C272 436 238 434 200 434C216 528 227 577 245 631L234 646C214 634 187 622 156 610L131 440C87 419 61 408 43 403L41 390ZM703 664L706 692L682 692L592 689C576 689 558 689 515 690L451 692L448 664L495 662C519 661 530 653 530 635C530 621 527 592 521 559L448 125C431 33 430 32 390 28L349 25L345 -3L387 -2C435 -1 458 0 477 0L574 -3L600 -3L603 25L554 28C527 30 518 37 518 57C518 63 519 74 520 78L563 340C713 169 736 140 841 -3L910 0C946 -1 952 -2 978 -3L978 27L958 27C935 27 915 39 894 65L648 367L940 640C956 655 977 665 994 665L1015 665L1015 692L992 691C971 690 955 689 947 689C937 689 921 690 900 691L880 692L880 663C880 655 870 642 842 614C798 569 629 403 565 353L610 613C617 651 624 658 661 661Z" stroke="rgb(0,0,0)" stroke-opacity="1" stroke-width="8" fill="rgb(0,0,0)" fill-opacity="1"></path></g></g><g><g><g><g><g transform="matrix(1,0,0,1,362.46875,428.6412286376953)"><path transform="matrix(0.01071,0,0,-0.01071,0,0)" d="M418 -3L418 27L366 30C311 33 301 44 301 96L301 700L60 598L67 548L217 614L217 96C217 44 206 33 152 30L96 27L96 -3C250 0 250 0 261 0C292 0 402 -3 418 -3Z" stroke="rgb(0,0,0)" stroke-opacity="1" stroke-width="8" fill="rgb(0,0,0)" fill-opacity="1"></path></g></g></g></g></g><g><g transform="matrix(1,0,0,1,368.73126220703125,425.9312408447266)"><path transform="matrix(0.015300000000000001,0,0,-0.015300000000000001,0,0)" d="M51 726L32 700C87 636 187 526 187 266C187 -10 83 -131 32 -194L51 -215C104 -165 273 -23 273 265C273 542 108 675 51 726Z" stroke="rgb(0,0,0)" stroke-opacity="1" stroke-width="8" fill="rgb(0,0,0)" fill-opacity="1"></path></g></g></g></g></g><g><text x="373.81878662109375" y="413.03126525878906" style="white-space:pre;stroke:none;fill:rgb(0,0,0);fill-opacity:1;font-size:13.5px;font-family:Arial, Helvetica, sans-serif;font-weight:400;font-style:normal;dominant-baseline:text-before-edge;text-decoration:none solid rgb(0, 0, 0);">, </text><text x="304.29376220703125" y="433.1812286376953" style="white-space:pre;stroke:none;fill:rgb(0,0,0);fill-opacity:1;font-size:13.5px;font-family:Arial, Helvetica, sans-serif;font-weight:400;font-style:normal;dominant-baseline:text-before-edge;text-decoration:none solid rgb(0, 0, 0);">fixed </text></g><g><g><g><g><g transform="matrix(1,0,0,1,336.5562744140625,445.2812774658203)"><path transform="matrix(0.015300000000000001,0,0,-0.015300000000000001,0,0)" d="M240 722L228 733C176 707 140 698 68 691L64 670L112 670C136 670 146 663 146 646C146 638 145 629 144 622L96 354C82 279 66 210 14 1L23 -9L90 8L113 132C122 180 146 225 180 259C249 59 281 -9 306 -9C319 -9 343 4 387 35L433 67L425 86L382 62C368 54 361 52 353 52C343 52 336 58 327 75C292 139 270 193 231 316L245 330C306 391 352 416 402 416C410 416 421 414 438 410L455 473C437 479 419 482 407 482C341 482 258 405 133 230Z" stroke="rgb(0,0,0)" stroke-opacity="1" stroke-width="8" fill="rgb(0,0,0)" fill-opacity="1"></path></g></g></g></g></g></g></g><g><g><g><text x="689.5999755859375" y="-14.087509155273438" style="white-space:pre;stroke:none;fill:rgb(0,0,0);fill-opacity:1;font-size:13.5px;font-family:Arial, Helvetica, sans-serif;font-weight:700;font-style:normal;dominant-baseline:text-before-edge;text-decoration:none solid rgb(0, 0, 0);">planar</text></g></g></g><g><g><g><g><g><g><g transform="matrix(1,0,0,1,663.800048828125,205.8000030517578)"><path transform="matrix(0.017,0,0,-0.017,0,0)" d="M582 103L237 692L75 692L70 664L105 662C150 660 184 615 185 606L92 102C80 40 74 32 38 28L7 25L2 -3L113 0C125 0 126 0 223 -3L228 25L186 28C146 31 137 39 137 72C137 80 138 91 140 102L220 566L558 -11L608 -11L702 542C723 655 725 659 762 662L799 664L802 691L589 692L584 664L631 662C657 661 667 654 667 638C667 631 584 116 582 103ZM882 664L937 662C961 661 972 653 972 635L889 125C872 34 871 31 831 28L790 25L786 -3L828 -2C869 -1 900 0 918 0C935 0 964 -1 1004 -2L1057 -3L1060 25L995 28C969 29 959 37 959 58C959 67 960 74 963 93L1061 648C1097 654 1113 656 1132 656C1234 656 1283 612 1283 519C1283 411 1211 323 1123 323C1101 323 1081 328 1044 342L1046 311C1083 293 1103 288 1132 288C1261 288 1371 405 1371 541C1371 642 1308 695 1189 692L885 692ZM1729 330L1752 330C1760 395 1767 432 1776 458C1752 473 1717 482 1680 482C1635 483 1562 463 1505 400C1451 352 1412 241 1412 136C1412 40 1454 -11 1534 -11C1588 -11 1636 9 1691 54L1741 95L1733 115L1718 105C1646 57 1608 40 1573 40C1517 40 1488 80 1488 159C1488 267 1523 371 1572 409C1593 425 1617 433 1648 433C1693 433 1729 414 1729 390Z" stroke="rgb(0,0,0)" stroke-opacity="1" stroke-width="8" fill="rgb(0,0,0)" fill-opacity="1"></path></g></g></g></g></g></g></g><g><g><g><text x="682.800048828125" y="225.40000915527344" style="white-space:pre;stroke:none;fill:rgb(0,0,0);fill-opacity:1;font-size:15px;font-family:Arial, Helvetica, sans-serif;font-weight:700;font-style:normal;dominant-baseline:text-before-edge;text-decoration:none solid rgb(0, 0, 0);">P</text></g></g></g><g><g><g><text x="339.3125" y="-93.20000457763672" style="white-space:pre;stroke:none;fill:rgb(0,0,0);fill-opacity:1;font-size:13.5px;font-family:Arial, Helvetica, sans-serif;font-weight:700;font-style:normal;dominant-baseline:text-before-edge;text-decoration:none solid rgb(0, 0, 0);">general</text></g></g></g><g><g><g><text x="648.4625244140625" y="415.47499084472656" style="white-space:pre;stroke:none;fill:rgb(0,0,0);fill-opacity:1;font-size:13.5px;font-family:Arial, Helvetica, sans-serif;font-weight:400;font-style:normal;dominant-baseline:text-before-edge;text-decoration:none solid rgb(0, 0, 0);">block</text></g></g></g><g><g><g><text x="625.4749755859375" y="120.56248474121094" style="white-space:pre;stroke:none;fill:rgb(0,0,0);fill-opacity:1;font-size:13.5px;font-family:Arial, Helvetica, sans-serif;font-weight:400;font-style:normal;dominant-baseline:text-before-edge;text-decoration:none solid rgb(0, 0, 0);">undirected path</text></g></g></g><g><g><g><text x="-14.18121337890625" y="30.64373779296875" style="white-space:pre;stroke:none;fill:rgb(0,0,0);fill-opacity:1;font-size:13.5px;font-family:Arial, Helvetica, sans-serif;font-weight:700;font-style:normal;dominant-baseline:text-before-edge;text-decoration:none solid rgb(0, 0, 0);">triangle-free</text></g></g></g></svg>
</svg>
